# xmcd
#
# Track frame offsets: 
#        150
#        26008
#        47066
#        67248
#        86539
#        106073
#        146105
#        155672
#        169038
#        187805
#
# Disc length: 2845 seconds
#
# Revision: 0
# Processed by: cddbd v1.5.2PL0 Copyright (c) Steve Scherf et al.
# Submitted via: ExactAudioCopy v1.0b3
#
DISCID=840b1b0a
DTITLE=Dan Patlansky - 20 Stones
DYEAR=2012
DGENRE=Blues
TTITLE0=Bring the World to its Knees
TTITLE1=Bright Lights, Big City
TTITLE2=Bye Bye
TTITLE3=Daddy's Old Gun
TTITLE4=20 Stones
TTITLE5=Lost your Good Thing now
TTITLE6=Slap in the Face
TTITLE7=Call Me The Breeze
TTITLE8=Too Late to Cry
TTITLE9=Cross Country Limping
EXTD=
EXTT0=
EXTT1=
EXTT2=
EXTT3=
EXTT4=
EXTT5=
EXTT6=
EXTT7=
EXTT8=
EXTT9=
PLAYORDER=
